<?xml version="1.0" encoding="utf-8"?>
<!-- Generator: Adobe Illustrator 28.1.0, SVG Export Plug-In . SVG Version: 6.00 Build 0)  -->
<svg version="1.1" id="Layer_4_copy" xmlns="http://www.w3.org/2000/svg" xmlns:xlink="http://www.w3.org/1999/xlink" x="0px"
	 y="0px" viewBox="0 0 48 48" style="enable-background:new 0 0 48 48;" xml:space="preserve">
<style type="text/css">
	.st0{fill:url(#SVGID_1_);}
	.st1{fill:url(#SVGID_00000132804638302635531770000000020906166920850593_);}
	.st2{fill:#FF6633;}
	.st3{fill:#1FBEC9;}
	.st4{fill:url(#SVGID_00000114055214857394753080000010913936985292139418_);}
	.st5{fill:url(#SVGID_00000003790084823987131500000015292558714217134990_);}
</style>
<g>
	
		<linearGradient id="SVGID_1_" gradientUnits="userSpaceOnUse" x1="29.2648" y1="413.8055" x2="33.353" y2="408.4859" gradientTransform="matrix(1 0 0 -1 0 450)">
		<stop  offset="0" style="stop-color:#15768C"/>
		<stop  offset="0.1694" style="stop-color:#188B9D"/>
		<stop  offset="0.3807" style="stop-color:#1A9EAC"/>
		<stop  offset="0.5982" style="stop-color:#1CA9B5"/>
		<stop  offset="0.8297" style="stop-color:#1CADB8"/>
	</linearGradient>
	<path class="st0" d="M17.3,40.9c4.2,2.9,9.2,3.9,13.7,2.3c5.2-1.8,8.6-6.6,9.7-12.4c-3.4,2.5-7.8,5-12.8,7
		C24.1,39.2,20.5,40.3,17.3,40.9z"/>
	
		<linearGradient id="SVGID_00000092419969477283934180000001876472608054827421_" gradientUnits="userSpaceOnUse" x1="8.2889" y1="436.5244" x2="24.2979" y2="444.9101" gradientTransform="matrix(1 0 0 -1 0 450)">
		<stop  offset="6.610756e-02" style="stop-color:#FF6633"/>
		<stop  offset="0.2371" style="stop-color:#FF7133"/>
		<stop  offset="0.6373" style="stop-color:#FF8733"/>
		<stop  offset="0.8966" style="stop-color:#FF8F33"/>
	</linearGradient>
	<path style="fill:url(#SVGID_00000092419969477283934180000001876472608054827421_);" d="M29.8,6.5c-4-2.4-8.6-3.2-12.8-1.7
		c-5,1.7-8.3,6.1-9.5,11.6c3.4-2.5,7.8-5,12.8-7C23.6,8.1,26.8,7.2,29.8,6.5z"/>
	<path class="st2" d="M44.3,8C42.7,5.6,38,4.8,29.8,6.5c-3,0.6-6.2,1.6-9.5,2.9c-5,2-9.4,4.4-12.8,7c-5,3.7-7.9,7.7-7,10.5
		c0.7,2.3,3.9,3.4,8.4,3.3c4.5-0.2,10.2-1.6,16-4.4c-7,1.6-13.3,0.3-13.2-1.7c0.2-3,7.3-8.6,18-12.6c1.5-0.6,3-1.1,4.3-1.5
		c4.6-1.4,8.1-2,10.3-1.8C44.3,8.1,44.3,8.1,44.3,8z"/>
	<path class="st3" d="M47.7,20.3c-0.7-2.4-4.1-3.5-8.9-3.3c-4.4,0.2-9.9,1.7-15.5,4.4c7-1.6,13.3-0.3,13.2,1.7
		c-0.2,3-7.3,8.6-18,12.6c-1.8,0.7-3.5,1.2-5,1.7C9.3,38.7,6,39.2,3.8,39v0.1c1.5,2.4,5.8,3.2,13.4,1.7c3.3-0.6,6.9-1.7,10.6-3.1
		c5-2,9.4-4.4,12.8-7C45.7,27.1,48.5,23.1,47.7,20.3z"/>
	
		<linearGradient id="SVGID_00000164471461986112018580000013660860342387948467_" gradientUnits="userSpaceOnUse" x1="8.0111" y1="425.5327" x2="31.1431" y2="436.4978" gradientTransform="matrix(1 0 0 -1 0 450)">
		<stop  offset="0" style="stop-color:#ED5F2F"/>
		<stop  offset="1" style="stop-color:#FF6633"/>
	</linearGradient>
	<path style="fill:url(#SVGID_00000164471461986112018580000013660860342387948467_);" d="M11.7,24.1c0.2-3,7.3-8.6,18-12.6
		c1.5-0.6,3-1.1,4.3-1.5c-1.5-1.8-2.3-2.3-4.2-3.4c-3,0.6-6.2,1.6-9.5,2.9c-5,2-9.4,4.4-12.8,7c-0.9,4-0.6,8.5,1,12.9
		c0.1,0.3,0.2,0.5,0.3,0.8c4.5-0.2,10.2-1.6,16-4.4C17.8,27.3,11.5,26.1,11.7,24.1z"/>
	
		<linearGradient id="SVGID_00000078033980990147364440000016603895276689045644_" gradientUnits="userSpaceOnUse" x1="13.5549" y1="415.7791" x2="35.559" y2="424.1616" gradientTransform="matrix(1 0 0 -1 0 450)">
		<stop  offset="0" style="stop-color:#1BACB5"/>
		<stop  offset="0.9115" style="stop-color:#1FBEC9"/>
	</linearGradient>
	<path style="fill:url(#SVGID_00000078033980990147364440000016603895276689045644_);" d="M39.5,18.7c-0.2-0.5-0.4-1.1-0.6-1.6
		c-4.4,0.2-9.9,1.7-15.5,4.4c7-1.6,13.3-0.3,13.2,1.7c-0.2,3-7.3,8.6-18,12.6c-1.8,0.7-3.5,1.2-5,1.7c1.4,1.8,2,2.3,3.8,3.5
		c3.3-0.6,6.9-1.7,10.6-3.1c5-2,9.4-4.4,12.8-7C41.3,27,41,22.8,39.5,18.7z"/>
</g>
</svg>
